<svg width="33" height="42" viewBox="0 0 33 42" fill="none" xmlns="http://www.w3.org/2000/svg">
<path d="M3.74822 41.75C2.67973 41.75 1.78829 41.3928 1.0739 40.6784C0.359514 39.964 0.0015463 39.0726 0 38.0041V13.0237C0 11.9567 0.357967 11.0661 1.0739 10.3517C1.78984 9.63729 2.68128 9.27932 3.74822 9.27778H8.11806V8.11806C8.11806 5.86356 8.90744 3.94692 10.4862 2.36815C12.065 0.789384 13.9816 0 16.2361 0C18.4906 0 20.4072 0.789384 21.986 2.36815C23.5648 3.94692 24.3542 5.86356 24.3542 8.11806V9.27778H28.7263C29.7933 9.27778 30.6839 9.63575 31.3983 10.3517C32.1127 11.0676 32.4707 11.9591 32.4722 13.026V38.0041C32.4722 39.071 32.1143 39.9625 31.3983 40.6784C30.6824 41.3944 29.7917 41.7515 28.7263 41.75H3.74822ZM3.74822 39.4306H28.7263C29.082 39.4306 29.409 39.2821 29.7074 38.9852C30.0059 38.6883 30.1543 38.3605 30.1528 38.0018V13.026C30.1528 12.6688 30.0043 12.341 29.7074 12.0426C29.4106 11.7441 29.0827 11.5957 28.724 11.5972H24.3542V17.3958C24.3542 17.7267 24.2436 18.0028 24.0225 18.2239C23.8014 18.445 23.5254 18.5556 23.1944 18.5556C22.8635 18.5556 22.5875 18.445 22.3664 18.2239C22.1453 18.0028 22.0347 17.7267 22.0347 17.3958V11.5972H10.4375V17.3958C10.4375 17.7267 10.3269 18.0028 10.1058 18.2239C9.8847 18.445 9.60869 18.5556 9.27778 18.5556C8.94687 18.5556 8.67086 18.445 8.44974 18.2239C8.22861 18.0028 8.11806 17.7267 8.11806 17.3958V11.5972H3.74822C3.39103 11.5972 3.06321 11.7457 2.76478 12.0426C2.46634 12.3394 2.3179 12.6673 2.31944 13.026V38.0041C2.31944 38.3597 2.46789 38.6868 2.76478 38.9852C3.06167 39.2837 3.38871 39.4321 3.7459 39.4306M10.4375 9.27778H22.0347V8.11806C22.0347 6.48517 21.4765 5.11051 20.3601 3.99408C19.2437 2.87766 17.869 2.31944 16.2361 2.31944C14.6032 2.31944 13.2286 2.87766 12.1121 3.99408C10.9957 5.11051 10.4375 6.48517 10.4375 8.11806V9.27778Z" fill="#363636"/>
</svg>
